<?xml version="1.0" encoding="UTF-8" standalone="no"?>
<!-- Generator: Adobe Illustrator 15.0.0, SVG Export Plug-In  -->

<svg
   xmlns:dc="http://purl.org/dc/elements/1.1/"
   xmlns:cc="http://creativecommons.org/ns#"
   xmlns:rdf="http://www.w3.org/1999/02/22-rdf-syntax-ns#"
   xmlns:svg="http://www.w3.org/2000/svg"
   xmlns="http://www.w3.org/2000/svg"
   xmlns:sodipodi="http://sodipodi.sourceforge.net/DTD/sodipodi-0.dtd"
   xmlns:inkscape="http://www.inkscape.org/namespaces/inkscape"
   version="1.1"
   x="0px"
   y="0px"
   width="32px"
   height="22px"
   viewBox="0 0 32 22"
   enable-background="new 0 0 32 22"
   xml:space="preserve"
   id="svg2"
   inkscape:version="0.48.4 r9939"
   sodipodi:docname="infoButtonPressed.svg"><metadata
   id="metadata21"><rdf:RDF><cc:Work
       rdf:about=""><dc:format>image/svg+xml</dc:format><dc:type
         rdf:resource="http://purl.org/dc/dcmitype/StillImage" /></cc:Work></rdf:RDF></metadata><sodipodi:namedview
   pagecolor="#ffffff"
   bordercolor="#666666"
   borderopacity="1"
   objecttolerance="10"
   gridtolerance="10"
   guidetolerance="10"
   inkscape:pageopacity="0"
   inkscape:pageshadow="2"
   inkscape:window-width="1920"
   inkscape:window-height="1033"
   id="namedview19"
   showgrid="false"
   inkscape:zoom="8.9375"
   inkscape:cx="-2.2377622"
   inkscape:cy="11"
   inkscape:window-x="-4"
   inkscape:window-y="-4"
   inkscape:window-maximized="1"
   inkscape:current-layer="svg2" />
<defs
   id="defs4">
</defs>
<g
   id="g6">
	
		<linearGradient
   id="SVGID_1_"
   gradientUnits="userSpaceOnUse"
   x1="1.1465"
   y1="289.9297"
   x2="23.1465"
   y2="289.9297"
   gradientTransform="matrix(0 -1 1 0 -273.9297 23.1465)">
		<stop
   offset="0.5368"
   style="stop-color:#D9D9D9"
   id="stop9" />
		<stop
   offset="1"
   style="stop-color:#DEDEDE"
   id="stop11" />
	</linearGradient>
	<rect
   width="32"
   height="22"
   id="rect13"
   fill="url(#SVGID_1_)" />
</g>


<path
   style="fill:none;stroke:#999999;stroke-width:1px;stroke-linecap:butt;stroke-linejoin:miter;stroke-opacity:1"
   d="m 11.412587,9.014423 c 5.6e-4,-0.3638314 0.429172,-0.4107897 0.559441,-0.6713287 0.03336,-0.066717 -0.02359,-0.1530119 0,-0.2237762 0.03336,-0.1000758 0.190418,-0.1237004 0.223776,-0.2237762 0.02359,-0.070764 -0.02359,-0.153012 0,-0.2237762 0.01668,-0.050038 0.08263,-0.068002 0.111888,-0.1118881 0.04626,-0.06939 0.06563,-0.1543862 0.111888,-0.2237763 0.02926,-0.043886 0.0883,-0.064712 0.111889,-0.1118881 0.03336,-0.066717 -0.05274,-0.1710316 0,-0.2237762 0.05274,-0.052745 0.171031,0.052745 0.223776,0 0.02637,-0.026372 -0.01668,-0.07853 0,-0.1118881 0.02359,-0.047176 0.0883,-0.064712 0.111888,-0.1118881 0.03027,-0.060532 -0.03027,-0.1632438 0,-0.2237762 0.232826,-0.4656516 -0.0077,0.1196123 0.223776,-0.1118882 0.02637,-0.026372 -0.01668,-0.07853 0,-0.1118881 0.123695,-0.2473907 0.06944,-0.034721 0.223776,-0.1118881 0.171366,-0.085683 0.0875,-0.1993865 0.223777,-0.3356643 0.05274,-0.052745 0.171031,0.052745 0.223776,0 0.02637,-0.026372 0,-0.074592 0,-0.1118881 0.0373,0 0.08552,0.026372 0.111888,0 0.02637,-0.026372 -0.02637,-0.085516 0,-0.1118881 0.05274,-0.052745 0.157059,0.033359 0.223776,0 0.04718,-0.023588 0.06471,-0.0883 0.111888,-0.1118882 0.03336,-0.016679 0.07853,0.016679 0.111888,0 0.04718,-0.023588 0.06471,-0.0883 0.111888,-0.1118881 0.03336,-0.016679 0.07651,0.011794 0.111889,0 0.07912,-0.026372 0.144659,-0.085516 0.223776,-0.1118881 0.118893,-0.039631 0.328659,0.039631 0.447552,0 0.07459,-0.037296 0.149184,-0.074592 0.223776,-0.1118881 0,-0.037296 -0.03336,-0.095209 0,-0.1118881 0.0296,-0.014801 0.561372,0 0.671329,0 0.261072,0 0.522145,0 0.783217,0 0.05039,0 0.301613,-0.017026 0.335664,0 0.04718,0.023588 0.06185,0.095209 0.111888,0.1118881 0.08097,0.026989 0.41067,-0.036883 0.447553,0 0.02637,0.026372 -0.02637,0.085516 0,0.1118881 0.02637,0.026372 0.07853,-0.016679 0.111888,0 0.04718,0.023588 0.06471,0.0883 0.111888,0.1118881 0.04979,0.024894 0.396376,-0.017059 0.447552,0 0.05004,0.016679 0.06471,0.0883 0.111889,0.1118881 0.03336,0.016679 0.08552,-0.026372 0.111888,0 0.03727,0.037267 -0.03727,0.1865092 0,0.2237763 0.02637,0.026372 0.07853,-0.016679 0.111888,0 0.465651,0.2328257 -0.119613,-0.00772 0.111888,0.2237762 0.07601,0.076008 0.222518,-0.1144035 0.335664,0.1118881 0.03336,0.066717 -0.05274,0.1710317 0,0.2237762 0.02637,0.026372 0.07459,0 0.111888,0 0.0373,0.074592 0.08552,0.1446594 0.111888,0.2237763 0.02359,0.070764 -0.05274,0.1710316 0,0.2237762 0.02637,0.026372 0.08552,-0.026372 0.111889,0 0.02637,0.026372 0,0.074592 0,0.1118881 0,0.2237762 0,0.4475524 0,0.6713287 0,0.037296 0,0.074592 0,0.1118881 0,0.037296 -0.02637,0.085516 0,0.1118881 0.02637,0.026372 0.08552,-0.026372 0.111888,0 0.05274,0.052745 -0.03336,0.157059 0,0.2237762 0.02359,0.047176 0.0883,0.064712 0.111888,0.1118881 0.02023,0.040462 0,0.4816179 0,0.5594406 0,0.037296 -0.02637,0.085516 0,0.1118881 0.02637,0.026372 0.08552,-0.026372 0.111888,0 0.02637,0.026372 0,0.074592 0,0.1118881 0,0.037296 0,0.074592 0,0.1118881 0,0.2237762 0,0.4475525 0,0.6713287 0,0.037296 0,0.074592 0,0.1118881 0,0.037296 0.01668,0.078529 0,0.1118881 -0.06713,0.1342661 -0.268532,0.2013981 -0.335664,0.3356641 -0.01668,0.03336 0.02637,0.08552 0,0.111888 -0.02637,0.02637 -0.07853,-0.01668 -0.111889,0 -0.04718,0.02359 -0.06185,0.09521 -0.111888,0.111888 -0.07076,0.02359 -0.153012,-0.02359 -0.223776,0 -0.349239,0.116413 0.0373,0.07459 -0.111888,0.223776 -0.02637,0.02637 -0.07853,-0.01668 -0.111888,0 -0.04718,0.02359 -0.06185,0.09521 -0.111888,0.111888 -0.07076,0.02359 -0.157059,-0.03336 -0.223776,0 -0.03336,0.01668 0.02637,0.08552 0,0.111888 -0.02637,0.02637 -0.07853,-0.01668 -0.111889,0 -0.0281,0.01405 -0.19568,0.209728 -0.223776,0.223776 -0.06672,0.03336 -0.157059,-0.03336 -0.223776,0 -0.04718,0.02359 -0.06471,0.0883 -0.111888,0.111888 -0.04436,0.02218 -0.31279,-0.02287 -0.335664,0 -0.02637,0.02637 0.02637,0.08552 0,0.111888 -0.02637,0.02637 -0.07459,0 -0.111889,0 -0.18648,0 -0.37296,0 -0.55944,0 -0.0373,0 -0.08552,-0.02637 -0.111888,0 -0.02637,0.02637 0.02637,0.08552 0,0.111888 -0.02287,0.02287 -0.291302,-0.02218 -0.335665,0 -0.04718,0.02359 -0.06471,0.0883 -0.111888,0.111889 -0.03336,0.01668 -0.08552,-0.02637 -0.111888,0 -0.02637,0.02637 0.02637,0.08552 0,0.111888 -0.02637,0.02637 -0.08552,-0.02637 -0.111888,0 -0.02637,0.02637 0.02637,0.08552 0,0.111888 -0.02637,0.02637 -0.08552,-0.02637 -0.111888,0 -0.0036,0.0036 0,0.308528 0,0.335664 0,0.671329 0,1.342657 0,2.013986 0,0.18648 0,0.372961 0,0.559441 0,0.07459 0,0.149184 0,0.223776 0,0.0373 0.0373,0.111888 0,0.111888 -0.0373,0 0,-0.07459 0,-0.111888"
   id="path3002"
   inkscape:connector-curvature="0" /><path
   style="fill:none;stroke:#999999;stroke-width:1px;stroke-linecap:butt;stroke-linejoin:miter;stroke-opacity:1"
   d="m 15.888112,18.860576 c 0.0373,0.149184 0.261072,0.410256 0.111888,0.447552 -0.149184,0.0373 -0.07459,-0.298368 -0.111888,-0.447552 z"
   id="path3004"
   inkscape:connector-curvature="0" /></svg>